<svg width="120" height="90" viewBox="0 0 120 90" fill="none" xmlns="http://www.w3.org/2000/svg">
<path d="M54.1176 44.3841C57.251 46.4731 62.749 46.4733 65.8831 44.3839L65.8847 44.3829L119.291 8.77851C117.539 3.71222 112.724 0.0625 107.07 0.0625H12.9296C7.27527 0.0625 2.46046 3.71222 0.708496 8.77851L54.1159 44.3832L54.1176 44.3841Z" fill="#526E3E"/>
<path d="M69.7848 50.2333L69.7831 50.2345C67.0404 52.0629 63.5196 52.9772 60 52.9772C56.4797 52.9772 52.9603 52.0631 50.2173 50.2343L50.2162 50.2336L0 16.7563V77.0081C0 84.1371 5.80012 89.937 12.9296 89.937H107.071C114.2 89.937 120 84.1371 120 77.0081V16.7563L69.7848 50.2333Z" fill="#526E3E"/>
</svg>
