<svg width="260" height="448" viewBox="0 0 260 448" fill="none" xmlns="http://www.w3.org/2000/svg">
<path fill-rule="evenodd" clip-rule="evenodd" d="M141.423 5.39372L255.878 144.54C264.857 155.456 254.785 171.593 241.037 168.321L182.859 154.49C181.772 154.228 180.64 154.215 179.548 154.454C178.457 154.694 177.433 155.178 176.556 155.871C175.679 156.564 174.971 157.447 174.486 158.454C174.001 159.461 173.751 160.566 173.755 161.683V433.21C173.748 437.131 172.188 440.889 169.416 443.661C166.644 446.433 162.886 447.994 158.965 448.001H101.032C97.1114 447.994 93.3535 446.433 90.5813 443.661C87.8091 440.889 86.2486 437.131 86.2415 433.21V161.683C86.246 160.566 85.9962 159.461 85.511 158.454C85.0257 157.447 84.3178 156.564 83.4407 155.871C82.5637 155.178 81.5404 154.694 80.4485 154.454C79.3566 154.215 78.2246 154.228 77.1382 154.49L18.9629 168.321C5.21187 171.593 -4.85705 155.456 4.12229 144.54L118.577 5.39372C124.492 -1.79921 135.502 -1.79921 141.417 5.39372H141.423Z" fill="#EDDBBE"/>
</svg>
