<svg width="451" height="451" viewBox="0 0 451 451" fill="none" xmlns="http://www.w3.org/2000/svg">
<path fill-rule="evenodd" clip-rule="evenodd" d="M81.968 7.65587C79.7416 5.42422 77.0969 3.65367 74.1853 2.44562C71.2736 1.23756 68.1523 0.615723 65 0.615723C61.8477 0.615723 58.7263 1.23756 55.8147 2.44562C52.9031 3.65367 50.2583 5.42422 48.032 7.65587L35.52 20.1679C20.4485 35.237 9.6623 54.0481 4.27023 74.6674C-1.12184 95.2866 -0.92518 116.97 4.83998 137.488L4.89598 137.664C19.952 186.88 52.192 256.512 123.344 327.656C194.512 398.824 264.16 431.072 313.512 445.728L313.624 445.768C334.046 451.506 355.626 451.71 376.152 446.358C396.679 441.006 415.412 430.291 430.432 415.312C435.256 411.056 439.616 406.696 443.344 402.968C447.843 398.467 450.371 392.364 450.371 386C450.371 379.636 447.843 373.533 443.344 369.032L353.968 279.656C349.467 275.157 343.364 272.629 337 272.629C330.636 272.629 324.533 275.157 320.032 279.656L275.168 324.52C274.207 325.482 273.016 326.182 271.709 326.556C270.401 326.93 269.02 326.964 267.696 326.656C256.152 319.536 232.592 302.28 190.656 260.344C148.52 218.2 130.824 194.16 123.608 182.312C123.227 180.968 123.212 179.548 123.563 178.196C123.915 176.845 124.621 175.612 125.608 174.624L125.664 174.568C136.8 163.208 157.376 142.64 170.192 129.816C172.424 127.59 174.194 124.945 175.402 122.033C176.61 119.122 177.232 116 177.232 112.848C177.232 109.696 176.61 106.574 175.402 103.663C174.194 100.751 172.424 98.1062 170.192 95.8799L81.968 7.65587ZM305 317.312L404.088 416.4C391.618 424.846 377.456 430.471 362.59 432.885C347.724 435.299 332.51 434.442 318.008 430.376C270.4 416.224 203.296 384.984 134.656 316.344C66.008 247.696 34.768 180.584 20.224 133.072C16.1431 118.505 15.2895 103.223 17.7227 88.2923C20.1558 73.3615 25.8173 59.1414 34.312 46.6239L132.552 144.872C125.616 151.84 119.056 158.456 114.24 163.36C111.034 166.588 108.818 170.666 107.852 175.113C106.887 179.559 107.213 184.189 108.792 188.456C108.968 188.912 109.176 189.36 109.432 189.784C116.616 201.792 134.68 226.992 179.344 271.656C223.984 316.296 248.672 333.856 260.28 340.88C260.781 341.185 261.315 341.431 261.872 341.616C266.107 343.038 270.655 343.251 275.003 342.229C279.352 341.207 283.33 338.991 286.488 335.832L305 317.312ZM416.672 406.36L316.312 306L331.344 290.976C332.086 290.232 332.968 289.642 333.938 289.24C334.909 288.837 335.949 288.63 337 288.63C338.051 288.63 339.091 288.837 340.062 289.24C341.032 289.642 341.914 290.232 342.656 290.976L432.032 380.344C433.528 381.846 434.368 383.88 434.368 386C434.368 388.12 433.528 390.154 432.032 391.656C428.464 395.224 424.288 399.408 419.6 403.536C418.642 404.496 417.666 405.437 416.672 406.36ZM143.856 133.544L44.36 34.0399C45.168 33.1759 45.992 32.3199 46.832 31.4799L59.344 18.9679C60.8463 17.472 62.88 16.6322 65 16.6322C67.12 16.6322 69.1537 17.472 70.656 18.9679L158.88 107.192C160.374 108.695 161.212 110.729 161.212 112.848C161.212 114.967 160.374 117.001 158.88 118.504L143.856 133.544Z" fill="#EDDBBE"/>
<path fill-rule="evenodd" clip-rule="evenodd" d="M226.648 171.248C241.505 171.256 255.751 177.163 266.256 187.669C276.761 198.176 282.666 212.423 282.672 227.28C282.672 229.403 283.515 231.439 285.016 232.94C286.517 234.441 288.553 235.284 290.676 235.284C292.799 235.284 294.835 234.441 296.336 232.94C297.837 231.439 298.68 229.403 298.68 227.28C298.68 187.52 266.4 155.24 226.648 155.24C224.525 155.24 222.489 156.083 220.988 157.584C219.487 159.085 218.644 161.121 218.644 163.244C218.644 165.367 219.487 167.403 220.988 168.904C222.489 170.405 224.525 171.248 226.648 171.248ZM225.368 106C291.6 106 345.368 159.776 345.368 226C345.368 228.122 346.211 230.157 347.711 231.657C349.211 233.157 351.246 234 353.368 234C355.49 234 357.525 233.157 359.025 231.657C360.525 230.157 361.368 228.122 361.368 226C361.368 150.944 300.424 90 225.368 90C223.246 90 221.211 90.8429 219.711 92.3431C218.211 93.8434 217.368 95.8783 217.368 98C217.368 100.122 218.211 102.157 219.711 103.657C221.211 105.157 223.246 106 225.368 106Z" fill="#EDDBBE"/>
<path fill-rule="evenodd" clip-rule="evenodd" d="M225.368 42C326.92 42 409.368 124.448 409.368 226C409.368 228.122 410.211 230.157 411.711 231.657C413.211 233.157 415.246 234 417.368 234C419.49 234 421.525 233.157 423.025 231.657C424.525 230.157 425.368 228.122 425.368 226C425.368 115.616 335.752 26 225.368 26C223.246 26 221.211 26.8429 219.711 28.3431C218.211 29.8434 217.368 31.8783 217.368 34C217.368 36.1217 218.211 38.1566 219.711 39.6569C221.211 41.1571 223.246 42 225.368 42Z" fill="#EDDBBE"/>
</svg>
